<?xml version="1.0" encoding="UTF-8"?>
<svg xmlns="http://www.w3.org/2000/svg" xmlns:xlink="http://www.w3.org/1999/xlink" width="px" height="50px" viewBox="0 0 41 49" version="1.1">
<defs>
<linearGradient id="linear0" gradientUnits="userSpaceOnUse" x1="26.648937" y1="20.603781" x2="135.665253" y2="114.397667" gradientTransform="matrix(0.221771,0,0,0.220878,-5.909961,-4.550922)">
<stop offset="0" style="stop-color:rgb(35.294118%,62.352941%,83.137255%);stop-opacity:1;"/>
<stop offset="1" style="stop-color:rgb(18.823529%,41.176471%,59.607843%);stop-opacity:1;"/>
</linearGradient>
<linearGradient id="linear1" gradientUnits="userSpaceOnUse" x1="150.961105" y1="192.351761" x2="112.031441" y2="137.272995" gradientTransform="matrix(0.221771,0,0,0.220878,-5.909961,-4.550922)">
<stop offset="0" style="stop-color:rgb(100%,83.137255%,23.137255%);stop-opacity:1;"/>
<stop offset="1" style="stop-color:rgb(100%,90.980392%,45.098039%);stop-opacity:1;"/>
</linearGradient>
<filter id="alpha" filterUnits="objectBoundingBox" x="0%" y="0%" width="100%" height="100%">
  <feColorMatrix type="matrix" in="SourceGraphic" values="0 0 0 0 1 0 0 0 0 1 0 0 0 0 1 0 0 0 1 0"/>
</filter>
<mask id="mask0">
  <g filter="url(#alpha)">
<rect x="0" y="0" width="41" height="49" style="fill:rgb(0%,0%,0%);fill-opacity:0.443137;stroke:none;"/>
  </g>
</mask>
<radialGradient id="radial0" gradientUnits="userSpaceOnUse" cx="61.518883" cy="132.285751" fx="61.518883" fy="132.285751" r="29.036913" gradientTransform="matrix(0.00000000689532,-0.0933127,0.415783,0.000000147449,-32.99743,55.401891)">
<stop offset="0" style="stop-color:rgb(72.156863%,72.156863%,72.156863%);stop-opacity:0.498039;"/>
<stop offset="1" style="stop-color:rgb(49.803922%,49.803922%,49.803922%);stop-opacity:0;"/>
</radialGradient>
<clipPath id="clip1">
  <rect x="0" y="0" width="41" height="49"/>
</clipPath>
<g id="surface5" clip-path="url(#clip1)">
<path style=" stroke:none;fill-rule:nonzero;fill:url(#radial0);" d="M 36.167969 49.660156 C 36.167969 48.164062 29.828125 46.953125 22.003906 46.953125 C 14.179688 46.953125 7.839844 48.164062 7.839844 49.660156 C 7.839844 51.15625 14.179688 52.371094 22.003906 52.371094 C 29.828125 52.371094 36.167969 51.15625 36.167969 49.660156 Z M 36.167969 49.660156 "/>
</g>
</defs>
<g id="surface1">
<path style=" stroke:none;fill-rule:nonzero;fill:url(#linear0);" d="M 21.652344 0 C 19.84375 0.0078125 18.117188 0.160156 16.597656 0.425781 C 12.125 1.207031 11.3125 2.835938 11.3125 5.847656 L 11.3125 9.820312 L 21.882812 9.820312 L 21.882812 11.144531 L 7.347656 11.144531 C 4.277344 11.144531 1.585938 12.964844 0.742188 16.429688 C -0.226562 20.402344 -0.269531 22.882812 0.742188 27.027344 C 1.496094 30.113281 3.289062 32.316406 6.363281 32.316406 L 9.996094 32.316406 L 9.996094 27.550781 C 9.996094 24.109375 13.015625 21.074219 16.597656 21.074219 L 27.15625 21.074219 C 30.097656 21.074219 32.441406 18.6875 32.441406 15.773438 L 32.441406 5.847656 C 32.441406 3.019531 30.027344 0.898438 27.15625 0.425781 C 25.339844 0.128906 23.457031 -0.0078125 21.652344 0 Z M 15.933594 3.195312 C 17.027344 3.195312 17.917969 4.089844 17.917969 5.191406 C 17.917969 6.285156 17.027344 7.171875 15.933594 7.171875 C 14.839844 7.171875 13.949219 6.285156 13.949219 5.191406 C 13.949219 4.089844 14.839844 3.195312 15.933594 3.195312 Z M 15.933594 3.195312 "/>
<path style=" stroke:none;fill-rule:nonzero;fill:url(#linear1);" d="M 33.761719 11.144531 L 33.761719 15.773438 C 33.761719 19.363281 30.675781 22.386719 27.15625 22.386719 L 16.597656 22.386719 C 13.707031 22.386719 11.3125 24.828125 11.3125 27.683594 L 11.3125 37.613281 C 11.3125 40.4375 13.804688 42.101562 16.597656 42.910156 C 19.945312 43.882812 23.152344 44.058594 27.15625 42.910156 C 29.820312 42.152344 32.441406 40.621094 32.441406 37.613281 L 32.441406 33.640625 L 21.882812 33.640625 L 21.882812 32.316406 L 37.726562 32.316406 C 40.800781 32.316406 41.945312 30.199219 43.011719 27.027344 C 44.117188 23.761719 44.070312 20.621094 43.011719 16.429688 C 42.253906 13.414062 40.804688 11.144531 37.726562 11.144531 Z M 27.824219 36.289062 C 28.917969 36.289062 29.804688 37.175781 29.804688 38.269531 C 29.804688 39.367188 28.917969 40.261719 27.824219 40.261719 C 26.730469 40.261719 25.839844 39.367188 25.839844 38.269531 C 25.839844 37.175781 26.730469 36.289062 27.824219 36.289062 Z M 27.824219 36.289062 "/>
<use xlink:href="#surface5" mask="url(#mask0)"/>
</g>
</svg>
