<?xml version="1.0" encoding="UTF-8"?>
<svg xmlns="http://www.w3.org/2000/svg" xmlns:xlink="http://www.w3.org/1999/xlink" width="109px" height="80px" viewBox="0 0 109 80" version="1.1">
<g id="surface1">
<path style=" stroke:none;fill-rule:nonzero;fill:rgb(25.490198%,80.392158%,32.156864%);fill-opacity:1;" d="M 14.96875 0 L 108.90625 0 L 108.90625 64.808594 C 103.859375 69.871094 98.800781 74.917969 93.726562 79.953125 L 0 79.953125 L 0 14.949219 C 4.96875 9.949219 9.980469 4.984375 14.96875 0 Z M 14.96875 0 "/>
<path style=" stroke:none;fill-rule:nonzero;fill:rgb(100%,100%,100%);fill-opacity:1;" d="M 28.847656 16.824219 C 32.414062 14.460938 36.824219 13.867188 41.015625 13.902344 C 45.007812 13.953125 49.199219 14.652344 52.511719 17.039062 C 54.914062 18.730469 56.476562 21.339844 57.519531 24.039062 C 59.207031 28.472656 59.699219 33.261719 59.757812 37.972656 C 59.765625 42.71875 59.550781 47.570312 57.980469 52.089844 C 56.929688 55.164062 54.925781 57.894531 52.285156 59.792969 C 54.1875 62.871094 56.125 65.929688 58.023438 69.007812 C 55.636719 70.109375 53.253906 71.21875 50.863281 72.316406 C 48.832031 68.957031 46.804688 65.59375 44.765625 62.238281 C 42.003906 62.691406 39.179688 62.65625 36.40625 62.347656 C 33.082031 61.949219 29.695312 60.9375 27.128906 58.699219 C 25.160156 56.992188 23.921875 54.601562 23.074219 52.171875 C 21.6875 48.0625 21.316406 43.691406 21.253906 39.378906 C 21.21875 34.71875 21.515625 29.984375 22.921875 25.515625 C 24.007812 22.152344 25.808594 18.792969 28.847656 16.824219 Z M 28.847656 16.824219 "/>
<path style=" stroke:none;fill-rule:nonzero;fill:rgb(100%,100%,100%);fill-opacity:1;" d="M 69.335938 16.671875 C 71.832031 16.667969 74.332031 16.667969 76.832031 16.671875 C 76.835938 19.980469 76.828125 23.28125 76.835938 26.589844 C 80.027344 26.59375 83.222656 26.589844 86.417969 26.59375 C 86.363281 28.738281 86.304688 30.882812 86.242188 33.03125 C 83.050781 33.039062 79.863281 33.027344 76.671875 33.035156 C 76.675781 38.457031 76.652344 43.875 76.683594 49.292969 C 76.742188 50.777344 76.710938 52.34375 77.363281 53.714844 C 77.839844 54.769531 79.121094 55.042969 80.164062 55.078125 C 82.132812 55.070312 84.101562 54.957031 86.070312 54.917969 C 86.1875 56.890625 86.304688 58.867188 86.417969 60.835938 C 82.503906 61.496094 78.394531 62.28125 74.503906 61.050781 C 72.867188 60.566406 71.339844 59.480469 70.671875 57.859375 C 69.484375 55.101562 69.386719 52.03125 69.335938 49.074219 C 69.328125 43.726562 69.335938 38.382812 69.332031 33.035156 C 67.589844 33.03125 65.847656 33.039062 64.105469 33.03125 C 64.101562 30.886719 64.101562 28.742188 64.105469 26.59375 C 65.847656 26.585938 67.585938 26.597656 69.328125 26.589844 C 69.335938 23.28125 69.328125 19.980469 69.335938 16.671875 Z M 69.335938 16.671875 "/>
<path style=" stroke:none;fill-rule:nonzero;fill:rgb(25.490198%,80.392158%,32.156864%);fill-opacity:1;" d="M 37.835938 20.683594 C 40.261719 20.367188 42.808594 20.453125 45.105469 21.371094 C 46.964844 22.105469 48.542969 23.546875 49.378906 25.371094 C 50.65625 28.140625 51.148438 31.195312 51.394531 34.210938 C 51.664062 38.222656 51.625 42.277344 51.074219 46.265625 C 50.683594 48.640625 50.128906 51.144531 48.523438 53.015625 C 46.890625 54.894531 44.375 55.703125 41.960938 55.890625 C 39.414062 56.078125 36.730469 55.890625 34.433594 54.6875 C 33.089844 53.972656 31.953125 52.851562 31.289062 51.480469 C 30.480469 49.835938 30.039062 48.039062 29.726562 46.242188 C 28.789062 40.542969 28.5625 34.648438 29.84375 28.984375 C 30.375 26.847656 31.140625 24.652344 32.703125 23.042969 C 34.058594 21.664062 35.949219 20.949219 37.835938 20.683594 Z M 37.835938 20.683594 "/>
</g>
</svg>
